HIERARCHY
ROOT Hips
{
	OFFSET -249.055206 84.790703 395.617310
	CHANNELS 6 Xposition Yposition Zposition Zrotation Yrotation Xrotation 
	JOINT LeftUpLeg
	{
		OFFSET 0.103457 1.857812 10.548510
		CHANNELS 3 Zrotation Yrotation Xrotation
		JOINT LeftLeg
		{
			OFFSET 43.499996 -0.000034 -0.000002
			CHANNELS 3 Zrotation Yrotation Xrotation
			JOINT LeftFoot
			{
				OFFSET 42.372200 0.000019 0.000006
				CHANNELS 3 Zrotation Yrotation Xrotation
				JOINT LeftToe
				{
					OFFSET 17.300014 0.000005 0.000004
					CHANNELS 3 Zrotation Yrotation Xrotation
					End Site
					{
						OFFSET 0.000000 0.000000 0.000000
					}
				}
			}
		}
	}
	JOINT RightUpLeg
	{
		OFFSET 0.103454 1.857821 -10.548510
		CHANNELS 3 Zrotation Yrotation Xrotation
		JOINT RightLeg
		{
			OFFSET 43.500038 -0.000023 -0.000002
			CHANNELS 3 Zrotation Yrotation Xrotation
			JOINT RightFoot
			{
				OFFSET 42.372269 -0.000015 0.000018
				CHANNELS 3 Zrotation Yrotation Xrotation
				JOINT RightToe
				{
					OFFSET 17.299999 -0.000003 0.000017
					CHANNELS 3 Zrotation Yrotation Xrotation
					End Site
					{
						OFFSET 0.000000 0.000000 0.000000
					}
				}
			}
		}
	}
	JOINT Spine
	{
		OFFSET 6.901964 -2.603738 -0.000002
		CHANNELS 3 Zrotation Yrotation Xrotation
		JOINT Spine1
		{
			OFFSET 12.588104 0.000003 0.000002
			CHANNELS 3 Zrotation Yrotation Xrotation
			JOINT Spine2
			{
				OFFSET 12.343203 0.000018 0.000001
				CHANNELS 3 Zrotation Yrotation Xrotation
				JOINT Neck
				{
					OFFSET 25.832893 -0.000031 0.000001
					CHANNELS 3 Zrotation Yrotation Xrotation
					JOINT Head
					{
						OFFSET 11.766602 0.000015 -0.000007
						CHANNELS 3 Zrotation Yrotation Xrotation
						End Site
						{
							OFFSET 0.000000 0.000000 0.000000
						}
					}
				}
				JOINT LeftShoulder
				{
					OFFSET 19.745899 -1.480385 6.000105
					CHANNELS 3 Zrotation Yrotation Xrotation
					JOINT LeftArm
					{
						OFFSET 11.284128 -0.000013 -0.000015
						CHANNELS 3 Zrotation Yrotation Xrotation
						JOINT LeftForeArm
						{
							OFFSET 33.000034 -0.000011 0.000028
							CHANNELS 3 Zrotation Yrotation Xrotation
							JOINT LeftHand
							{
								OFFSET 25.200010 0.000029 -0.000001
								CHANNELS 3 Zrotation Yrotation Xrotation
								End Site
								{
									OFFSET 0.000000 0.000000 0.000000
								}
							}
						}
					}
				}
				JOINT RightShoulder
				{
					OFFSET 19.746101 -1.480389 -6.000086
					CHANNELS 3 Zrotation Yrotation Xrotation
					JOINT RightArm
					{
						OFFSET 11.284134 -0.000024 0.000000
						CHANNELS 3 Zrotation Yrotation Xrotation
						JOINT RightForeArm
						{
							OFFSET 33.000103 0.000024 0.000001
							CHANNELS 3 Zrotation Yrotation Xrotation
							JOINT RightHand
							{
								OFFSET 25.199764 0.000116 0.000427
								CHANNELS 3 Zrotation Yrotation Xrotation
								End Site
								{
									OFFSET 0.000000 0.000000 0.000000
								}
							}
						}
					}
				}
			}
		}
	}
}
MOTION
Frames: 7
Frame Time: 0.033333
131.758698 71.482452 540.811401 78.003417 5.468179 -154.497294 120.986774 -0.227496 172.512601 -83.768964 4.697964 -2.654935 106.335390 1.546664 -0.676023 21.454553 0.003084 -0.000001 104.558879 -0.158902 -173.413080 -87.137498 -4.147360 12.800627 94.364411 -8.123797 2.947668 21.454558 -0.003109 -0.000017 16.076023 0.246245 0.170988 22.140149 0.455175 0.385904 21.822039 0.457628 0.383165 -19.192994 -8.232625 3.033061 -17.809022 0.213277 -2.242339 137.530135 -73.564068 42.050531 -47.525143 25.698139 -14.506067 -30.964075 -13.387280 1.144806 7.532660 -10.059678 21.021268 118.170633 75.559398 -61.444785 -46.365021 -26.207094 8.003763 -31.839149 16.141914 -1.366266 8.441738 9.144230 -5.436739 
134.693207 70.235619 538.832520 77.787501 4.472006 -153.999497 123.028673 0.436598 171.044712 -86.366711 4.630015 -2.387045 110.297009 1.377002 -0.146461 21.454553 0.003092 -0.000000 102.944871 0.500305 -171.803341 -76.612948 -4.794508 13.287630 92.614230 -8.249076 4.634201 21.454557 -0.003108 -0.000017 16.143258 0.357841 -0.035726 22.274065 0.715782 -0.001922 21.955956 0.715888 -0.006227 -18.272604 -7.779141 2.792418 -18.707781 -0.431631 -1.858209 135.056308 -73.638073 44.555646 -47.665862 22.718811 -15.490061 -36.441699 -14.859900 1.359720 6.832243 -11.463328 21.223414 118.222173 75.383049 -61.408858 -46.388589 -25.735349 7.919580 -31.651141 16.214722 -1.367017 8.282388 8.654160 -6.584096 
137.617096 69.073372 537.045227 77.819316 4.032590 -153.556299 125.187231 0.850798 170.639094 -88.675608 4.366357 -2.304412 113.941708 1.313231 0.007276 21.454551 0.003091 0.000000 102.011136 0.680609 -169.937033 -68.942195 -6.173643 13.520422 88.971854 -8.232412 5.224416 21.454562 -0.003108 -0.000018 16.161623 0.569280 -0.109032 22.310948 1.148789 -0.106290 21.992784 1.148264 -0.113209 -17.814547 -7.266221 2.526815 -18.654343 -0.918536 -1.564118 132.296570 -74.105852 47.314749 -48.001852 19.945997 -15.596766 -41.417799 -16.255553 1.577649 5.740768 -11.416190 21.812597 119.312640 75.353024 -60.313869 -46.165894 -25.605585 7.645594 -32.249090 16.384572 -1.390472 7.867684 8.567524 -7.222050 
140.331100 68.158653 535.446716 77.886136 3.855669 -153.464406 127.284960 1.013505 170.549072 -90.522068 4.029338 -2.497568 116.656298 1.444079 -0.238715 21.454551 0.003099 0.000001 101.349489 0.022992 -169.587914 -67.363424 -7.534712 13.504970 84.397915 -8.757873 1.730668 21.454558 -0.003109 -0.000017 16.169583 0.825016 -0.083985 22.328602 1.650615 -0.007229 22.010351 1.650672 -0.017180 -17.890559 -7.323259 2.540482 -18.354482 -1.272453 -1.444524 130.336607 -74.781241 49.241914 -48.630797 17.106318 -16.182112 -45.260068 -16.965483 1.733749 5.123715 -10.279179 23.061007 118.987564 75.519858 -60.626023 -46.096701 -25.674589 7.804283 -32.731745 16.340000 -1.397944 7.496587 8.848381 -7.412395 
143.192993 67.163277 533.865601 77.917309 3.741841 -153.662905 129.464173 1.047193 170.126202 -92.424009 3.966284 -2.985803 119.131900 1.790636 -0.727453 21.454550 0.003087 -0.000000 100.919255 -0.839804 -172.158702 -71.760843 -6.657160 13.493965 83.282047 -8.518731 2.977876 21.454558 -0.003109 -0.000017 16.080420 1.127474 -0.031013 22.153756 2.239884 0.154423 21.835399 2.240913 0.140901 -17.456430 -8.428593 2.872592 -18.627408 -1.307595 -1.739117 128.223333 -75.249225 51.338591 -48.318995 15.419323 -18.099578 -49.167800 -16.893360 1.849641 5.330484 -10.436790 23.976151 117.535794 75.823754 -62.059304 -46.254724 -25.910625 7.698393 -32.528848 16.131350 -1.380178 7.711500 9.306952 -7.470608 
146.044006 66.445549 532.368530 78.259802 4.008449 -154.343602 131.123841 0.395997 169.604594 -95.211860 3.906149 -3.760131 118.869908 2.263496 -0.617850 21.454551 0.003095 0.000000 100.878411 -2.329102 -174.425642 -75.773251 -5.202847 14.650423 83.679926 -9.425631 2.565895 21.454560 -0.003107 -0.000017 16.061927 1.503581 0.146110 22.125841 2.951307 0.577247 21.807310 2.954876 0.559412 -17.005663 -9.472125 3.373118 -18.985551 -1.678775 -1.682367 127.899827 -75.471726 51.646291 -47.629815 13.945546 -18.899142 -52.094929 -17.306523 1.973437 4.606993 -11.165932 24.006652 115.945466 75.460196 -63.692259 -46.109289 -25.560001 7.353499 -31.517689 15.961293 -1.348002 8.118312 9.572315 -6.737090 
148.845001 66.798103 530.769409 77.592288 3.521750 -155.180887 130.663131 -0.065097 168.293826 -98.950378 3.521831 -4.082866 110.721704 2.461325 0.915387 21.454546 0.003100 0.000002 101.497178 -2.897005 -175.382073 -77.834957 -5.153413 14.581870 83.335917 -9.666342 1.094507 21.454560 -0.003108 -0.000017 16.003401 1.678316 0.098028 22.010614 3.307161 0.513797 21.691945 3.310329 0.493813 -17.135758 -11.381306 4.372094 -19.242096 -1.112903 -2.112045 131.343090 -76.079018 48.114458 -47.285635 12.876481 -19.104900 -53.787719 -17.723207 2.059330 3.838415 -12.775361 21.885627 112.531041 74.804833 -67.184145 -46.273821 -25.279218 8.575822 -30.583692 15.361019 -1.290544 8.132535 9.336594 -6.770160 
